<svg id="Слой_2" data-name="Слой 2" xmlns="http://www.w3.org/2000/svg" viewBox="0 0 289.06 337.87">
  <defs>
    <style>
      .cls-1 {
        fill: #00963e;
        stroke: #00963e;
      }

      .cls-1, .cls-2, .cls-3, .cls-4 {
        stroke-miterlimit: 10;
      }

      .cls-2 {
        fill: #00c853;
        stroke: #00c853;
      }

      .cls-3 {
        fill: #603813;
        stroke: #603813;
      }

      .cls-4 {
        fill: #fdd835;
        stroke: #fdd835;
      }
    </style>
  </defs>
  <title>newdes</title>
  <path class="cls-1" d="M120.5,188.5a19.8,19.8,0,0,0-8-4c-6.68-1.53-10.35,2.16-14,0-3.85-2.27-1.55-7-5-11-6.45-7.4-21.92.93-26-5-3.61-5.25,5.4-16.31,2-19.17-1.26-1.06-3.39-.29-5,.17-13.63,3.82-32.29-3.87-35-12a21.5,21.5,0,0,1-1.13-8.58,23.14,23.14,0,0,0,.35-3.52,21.11,21.11,0,0,0-1.22-5.9c-4.33-14.39-20-16.19-20-27a12.68,12.68,0,0,1,5-10c6.18-4.36,12.82,2,28,4,14.78,1.93,21-2.58,27.75-.9a16.92,16.92,0,0,1,4.25,1.9c10.78,5.82,11.24,14.08,18,19,7.93,5.77,15.44.34,22,3C121.07,113,127.69,130.16,120.5,188.5Z" transform="translate(-7 -17.93)"/>
  <path class="cls-2" d="M155.5,197.5c.17.29,18-16.89,37-13,11,2.26,10.37,9.14,24,16,22.12,11.13,43,2.62,47,12,2.16,5.07-3.2,9.23,0,16,2.66,5.62,7.22,4.58,11,10,5.68,8.15-1.6,14.85,3,24,5,10,17,8.43,18,16,.8,6.11-6.7,9.3-6,19,.14,1.89.64,4.88,1,7,1.18,7,2.06,8.9,1,11-1.26,2.5-4.55,3.88-7,4-11.58.56-15.3-26.64-29-28-8.35-.83-16.14,8.37-20,5-2-1.75-1.07-5.24-4-7-2.43-1.46-4.44,0-6-1-2.88-1.91,1.7-10.4,2-17,.8-17.75-29.26-23.86-30-42-.47-11.48,11.35-14.84,9-25s-16.22-17.08-28-17C164.83,187.6,155.38,197.28,155.5,197.5Z" transform="translate(-7 -17.93)"/>
  <path class="cls-1" d="M161.5,213.5c2.5-.4,0-10,6-21,7.84-14.25,20.49-13.14,23-24,2.13-9.24-6.54-12.15-5-23,1.87-13.12,15.55-15.89,14-25-1.12-6.56-8.84-8.76-10-19a18.4,18.4,0,0,1,0-5.17c1-5.59,5-8.36,5-16.83.06-8.76-5.61-10.47-9-25-3.7-15.86,2.79-26.51-5-34-1.17-1.12-1.85-1.78-3-2-9-1.7-22.73,28.33-29,47-15.25,45.39-7.25,85.82-3,106C150.24,194,157.86,214.08,161.5,213.5Z" transform="translate(-7 -17.93)"/>
  <path class="cls-2" d="M146.5,201.5c-3.22-.06-3-4.86-10-11-7.34-6.47-12.42-5.45-14-10-1.9-5.49,5-8.49,4-15-1.3-8.68-14.37-9.12-16-18-1.21-6.6,5.32-8.34,5-16-.47-11.24-15-14.93-14-24,.6-5.18,5.42-4.69,8-11,4.94-12.1-8.8-23.74-4-31,3.54-5.35,11.77-.2,18-6,8.64-8-.57-24.1,8-31,3.88-3.12,10.34-3.51,14-1,5.53,3.79,1.12,11.74,7,19,5.5,6.78,12.52,3.74,16,10,3.11,5.6-1.91,9.09,0,19,1.7,8.84,6.28,9.11,7,16,1.06,10-8.4,11.75-10,23-1.94,13.62,10.73,19.37,7,32-1.39,4.72-3.27,4.26-7,13-3,7-2.95,10-5,17C159.18,181,146.5,192.5,146.5,201.5Z" transform="translate(-7 -17.93)"/>
  <path class="cls-3" d="M147.5,223.5c15-8,13-31,13-38s1-6,1-3-1,38,9,39C174.5,227.5,132.5,231.5,147.5,223.5Z" transform="translate(-7 -17.93)"/>
  <path class="cls-3" d="M150.5,228.5c8.07-1.88,11.42-5.3,13-8,5-8.57-2.56-18.84,4-28a22.58,22.58,0,0,1,5-5,21.8,21.8,0,0,0-4,5c-4.38,8.79,4,24.08,10.67,25.15a15.28,15.28,0,0,0,7.33.85C200.5,216.5,165.5,236.5,150.5,228.5Z" transform="translate(-7 -17.93)"/>
  <path class="cls-3" d="M115.5,225.5c30-8-11.47-61.74-12.23-62.87s-6.77-8.13,2.23-.13,29,61,45,53C150.5,216.5,144.5,229.5,115.5,225.5Z" transform="translate(-7 -17.93)"/>
  <path class="cls-3" d="M118.5,225.5c11.89,2.07,18.44.39,22-3.23,2.07-2.11,3.5-5.27,4-13.77,1.08-17.85-4-30-3-31s9,51,23,51C142.5,240.5,122.5,229.5,118.5,225.5Z" transform="translate(-7 -17.93)"/>
  <path class="cls-4" d="M175.5,355.5c-7.24-9.64-18.77-22-36-30-24.72-11.49-38.28-3.43-53-16C71.6,296.77,65.07,271.07,74,251.27c7.5-16.59,23.4-23.56,24.86-24.15,8.18-3.34,15.22-2.78,19.62-3.62.62.64,13.42,13.33,28.44,9.14a25.43,25.43,0,0,0,11.56-7.14,25.83,25.83,0,0,0,24-9c10-12,78,21,40,70a109.44,109.44,0,0,1-23.66,23.11c-15.69,11-23.75,9.79-27.78,17.91C168.68,332.32,167.53,340.63,175.5,355.5Z" transform="translate(-7 -17.93)"/>
</svg>
